Coordinates
version=1
nRows=13
nColumns=36
inDegrees=yes

Units are S.I. units (second, meters, Newtons, ...)
If the header above contains a line with 'inDegrees', this indicates whether rotational values are in degrees (yes) or radians (no).

endheader
time	pelvis_tilt	pelvis_list	pelvis_rotation	pelvis_tx	pelvis_ty	pelvis_tz	hip_flexion_r	hip_adduction_r	hip_rotation_r	knee_angle_r	knee_angle_r_beta	ankle_angle_r	subtalar_angle_r	mtp_angle_r	hip_flexion_l	hip_adduction_l	hip_rotation_l	knee_angle_l	knee_angle_l_beta	ankle_angle_l	subtalar_angle_l	mtp_angle_l	lumbar_extension	lumbar_bending	lumbar_rotation	arm_flex_r	arm_add_r	arm_rot_r	elbow_flex_r	pro_sup_r	arm_flex_l	arm_add_l	arm_rot_l	elbow_flex_l	pro_sup_l
      1.37916670	    -20.57482085	     -2.60313957	      1.91992188	     -0.92116530	      1.18858265	     -0.06314278	     28.67233640	      1.44931664	     -1.24943225	     20.45743593	      0.35704961	     13.05260788	     -8.44948327	     -7.49999987	     32.83960301	     -2.51911691	     -0.03685515	     28.90095258	      0.50441678	     15.92665556	     -7.08749099	     -7.49999987	    -12.08540435	      1.69614441	      1.55147371	     -5.39732585	    -14.46553478	     13.80448767	     43.06975004	     76.93148646	     -8.96969169	    -15.73335048	     18.18074990	     48.68706456	     76.77016098
      1.38333330	    -20.59850848	     -2.68748318	      2.02127201	     -0.91993003	      1.19354234	     -0.06203984	     28.94648170	      1.53532674	     -1.08535160	     21.13644714	      0.36890059	     13.49654458	     -8.64632662	     -7.49999987	     33.26031869	     -2.63388901	      0.07533161	     29.67460200	      0.51791951	     16.15611102	     -7.13758881	     -7.49999987	    -12.51359361	      1.82053871	      1.56270662	     -5.20670557	    -14.50228415	     13.80372157	     43.11510794	     76.92433024	     -8.64861030	    -15.71398507	     18.17964659	     48.65575172	     76.74657285
      1.38750000	    -20.96825934	     -2.83159048	      2.10262590	     -0.92088081	      1.19412779	     -0.06198095	     29.72921866	      1.66128098	     -1.16347803	     21.88942902	      0.38204261	     13.71902634	     -8.89845385	     -7.49999987	     34.16248734	     -2.79678685	      0.14221879	     30.57870044	      0.53369900	     16.39093036	     -7.01766542	     -7.49999987	    -12.53270813	      2.00681029	      1.67963391	     -5.10268207	    -14.62808123	     13.95673596	     43.30868860	     76.46238870	     -8.23691336	    -15.64328863	     18.40846746	     48.37698988	     76.19125629
      1.39166670	    -20.94812434	     -2.87114482	      2.20872034	     -0.92016025	      1.19859739	     -0.06258137	     29.90993902	      1.69637643	     -1.19163043	     22.35186959	      0.39011372	     13.74117798	     -9.03824432	     -7.49999987	     34.35031902	     -2.82754765	      0.20977697	     30.90639891	      0.53941842	     16.09083057	     -6.91722892	     -7.49999987	    -13.19388338	      2.08595165	      1.69797123	     -4.71493693	    -14.63731537	     14.00909917	     43.29124587	     76.50367301	     -7.73872231	    -15.56987492	     18.45944094	     48.26619971	     76.19300404
      1.39583330	    -20.80307004	     -2.93563007	      2.32088894	     -0.92111618	      1.19481079	     -0.06325327	     30.00146414	      1.69905916	     -1.28156515	     22.78672689	      0.39770341	     13.97747864	     -9.05041345	     -7.49999987	     34.50967284	     -2.85899328	      0.30245133	     31.37910754	      0.54766874	     16.18470908	     -6.71540639	     -7.49999987	    -14.04693955	      2.21577103	      1.77246166	     -4.29437422	    -14.77298513	     14.16083780	     43.40256478	     76.10884699	     -7.06518531	    -15.47501319	     18.62521600	     47.93577385	     75.63294110
      1.40000000	    -20.66932219	     -3.00592516	      2.43177236	     -0.91874714	      1.19357113	     -0.06386651	     30.04514245	      1.70873145	     -1.18655815	     23.27140166	      0.40616258	     13.96595523	     -9.40579793	     -7.49999987	     34.60058115	     -2.93409193	      0.35472827	     31.83977664	      0.55570894	     16.23599781	     -6.65170691	     -7.49999987	    -14.81653258	      2.38237987	      1.84073681	     -3.94134671	    -14.97648242	     14.62710877	     43.41374801	     75.78080629	     -6.51979225	    -15.42523908	     19.11199883	     47.64697312	     75.08871071
      1.40416670	    -20.74694718	     -3.07536150	      2.49835338	     -0.91812234	      1.18748029	     -0.06241815	     30.52685380	      1.69946867	     -1.28925086	     24.18667965	      0.42213720	     14.34221952	     -9.73858567	     -7.49999987	     35.15844328	     -3.07052798	      0.30694068	     32.80966678	      0.57263671	     16.81612213	     -6.49599585	     -7.49999987	    -15.24913433	      2.48028267	      1.90148999	     -3.73660965	    -15.18784262	     15.22913778	     43.49515446	     75.99989889	     -6.16946586	    -15.53477013	     19.70892343	     47.55722328	     74.74554727
      1.40833330	    -20.79484377	     -3.15285079	      2.50740077	     -0.91713883	      1.18504865	     -0.06244900	     31.05264706	      1.74139587	     -1.43112149	     25.29394982	      0.44146271	     14.70100383	    -10.19820999	     -7.49999987	     35.70380385	     -3.20683272	      0.34760656	     33.77197903	      0.58943223	     17.32521121	     -6.30862512	     -7.49999987	    -15.73291540	      2.57260717	      1.90823007	     -3.61473581	    -15.31486911	     15.30299630	     43.79693006	     75.54505701	     -5.96065702	    -15.53857662	     19.72334283	     47.61973520	     74.07001510
      1.41250000	    -20.82301150	     -3.17482370	      2.53984465	     -0.91551922	      1.18430081	     -0.06402302	     31.49698563	      1.64865692	     -1.64916488	     26.31563513	      0.45929448	     15.28673334	    -10.40422727	     -7.49999987	     36.15499301	     -3.19212179	      0.44358686	     34.70596129	      0.60573329	     17.99517588	     -5.98886289	     -7.49999987	    -16.13900901	      2.64918167	      1.89854384	     -3.50596921	    -15.47259554	     15.33275077	     43.99071635	     75.29851885	     -5.76097642	    -15.46685989	     19.75941043	     47.53892726	     73.57503394
      1.41666670	    -20.85986899	     -3.24646210	      2.54556824	     -0.91467071	      1.18087144	     -0.06425957	     32.05946502	      1.62928930	     -1.74808528	     27.61440727	      0.48196233	     16.02610117	    -10.45079054	     -7.49999987	     36.66539571	     -3.25559095	      0.52021849	     35.80425027	      0.62490205	     18.80399370	     -5.71207481	     -7.49999987	    -16.46282107	      2.78254631	      1.89658049	     -3.44492208	    -15.61163959	     15.33007193	     44.18066790	     74.61689450	     -5.57199631	    -15.41011924	     19.86856298	     47.46102099	     72.67128763
      1.42083330	    -21.14059917	     -3.34276284	      2.56478877	     -0.91780889	      1.17809426	     -0.06141406	     33.17521671	      1.66679445	     -1.78619587	     29.23163589	      0.51018829	     16.79800503	    -10.71108524	     -7.49999987	     37.70603730	     -3.39493294	      0.57137351	     37.22311031	      0.64966583	     19.45359735	     -5.74139155	     -7.49999987	    -16.66186874	      2.85745268	      1.86815301	     -3.33441992	    -15.72204776	     15.27648477	     44.57248541	     75.03345250	     -5.40656082	    -15.60909053	     19.92206360	     47.74329442	     72.86668894
      1.42500000	    -20.96631313	     -3.38016975	      2.69804349	     -0.91662771	      1.18318600	     -0.06144487	     33.41633344	      1.68202983	     -1.70798639	     30.04592912	      0.52440039	     17.15866758	    -10.67580294	     -7.49999987	     38.04657374	     -3.46809179	      0.68719608	     38.21740819	      0.66701960	     19.58204140	     -5.99940456	     -7.49999987	    -17.40887083	      2.87845625	      1.75494781	     -2.93255949	    -15.66122328	     15.17338029	     44.62570356	     75.12993775	     -4.94012753	    -15.65135608	     19.87621328	     47.63887506	     72.88745603
      1.42916670	    -20.78686915	     -3.39629133	      2.84973538	     -0.91516456	      1.18178933	     -0.06256164	     33.57060245	      1.57213286	     -1.79908133	     30.75245728	      0.53673163	     17.74769150	    -10.31723159	     -7.49999987	     38.29029741	     -3.49045105	      0.72119426	     39.15145904	      0.68332187	     19.79415074	     -6.29253819	     -7.49999987	    -18.12243395	      2.94028482	      1.68246514	     -2.64969922	    -15.67406756	     14.93399598	     44.84009315	     74.94723891	     -4.45556539	    -15.62176794	     19.86147667	     47.47153409	     72.49686934
